<mxfile host="app.diagrams.net" agent="Mozilla/5.0 (Windows NT 10.0; Win64; x64) AppleWebKit/537.36 (KHTML, like Gecko) Chrome/131.0.0.0 Safari/537.36" version="25.0.3">
  <diagram id="C5RBs43oDa-KdzZeNtuy" name="Page-1">
    <mxGraphModel dx="755" dy="482" grid="1" gridSize="10" guides="1" tooltips="1" connect="1" arrows="1" fold="1" page="1" pageScale="1" pageWidth="827" pageHeight="1169" math="0" shadow="0">
      <root>
        <mxCell id="WIyWlLk6GJQsqaUBKTNV-0" />
        <mxCell id="WIyWlLk6GJQsqaUBKTNV-1" parent="WIyWlLk6GJQsqaUBKTNV-0" />
        <mxCell id="ifYsJRK8j1tAmMsnNO0l-2" value="" style="edgeStyle=orthogonalEdgeStyle;rounded=0;orthogonalLoop=1;jettySize=auto;html=1;" edge="1" parent="WIyWlLk6GJQsqaUBKTNV-1" source="ifYsJRK8j1tAmMsnNO0l-4">
          <mxGeometry relative="1" as="geometry">
            <mxPoint x="300" y="400" as="targetPoint" />
          </mxGeometry>
        </mxCell>
        <mxCell id="ifYsJRK8j1tAmMsnNO0l-0" value="INICIO" style="ellipse;whiteSpace=wrap;html=1;aspect=fixed;" vertex="1" parent="WIyWlLk6GJQsqaUBKTNV-1">
          <mxGeometry x="249.25" y="190" width="100" height="100" as="geometry" />
        </mxCell>
        <mxCell id="ifYsJRK8j1tAmMsnNO0l-7" value="" style="edgeStyle=orthogonalEdgeStyle;rounded=0;orthogonalLoop=1;jettySize=auto;html=1;" edge="1" parent="WIyWlLk6GJQsqaUBKTNV-1" source="ifYsJRK8j1tAmMsnNO0l-4" target="ifYsJRK8j1tAmMsnNO0l-6">
          <mxGeometry relative="1" as="geometry" />
        </mxCell>
        <mxCell id="ifYsJRK8j1tAmMsnNO0l-9" value="" style="edgeStyle=orthogonalEdgeStyle;rounded=0;orthogonalLoop=1;jettySize=auto;html=1;" edge="1" parent="WIyWlLk6GJQsqaUBKTNV-1" source="ifYsJRK8j1tAmMsnNO0l-6" target="ifYsJRK8j1tAmMsnNO0l-8">
          <mxGeometry relative="1" as="geometry" />
        </mxCell>
        <mxCell id="ifYsJRK8j1tAmMsnNO0l-6" value="definir la variable cantidad_letras&lt;div&gt;y asignarle la longitud de palabra_ingresada&lt;/div&gt;" style="rounded=1;whiteSpace=wrap;html=1;fillColor=#dae8fc;strokeColor=#6c8ebf;" vertex="1" parent="WIyWlLk6GJQsqaUBKTNV-1">
          <mxGeometry x="186.75" y="490" width="225" height="122" as="geometry" />
        </mxCell>
        <mxCell id="ifYsJRK8j1tAmMsnNO0l-11" value="" style="edgeStyle=orthogonalEdgeStyle;rounded=0;orthogonalLoop=1;jettySize=auto;html=1;" edge="1" parent="WIyWlLk6GJQsqaUBKTNV-1" source="ifYsJRK8j1tAmMsnNO0l-8" target="ifYsJRK8j1tAmMsnNO0l-10">
          <mxGeometry relative="1" as="geometry" />
        </mxCell>
        <mxCell id="ifYsJRK8j1tAmMsnNO0l-8" value="mostrar mensaje: &quot;La palabra ingresada tiene&quot;,. cantidad_letras, &quot;letras&quot;" style="shape=parallelogram;perimeter=parallelogramPerimeter;whiteSpace=wrap;html=1;fixedSize=1;rounded=1;fillColor=#ffe6cc;strokeColor=#d79b00;" vertex="1" parent="WIyWlLk6GJQsqaUBKTNV-1">
          <mxGeometry x="157.25" y="650" width="284" height="119.5" as="geometry" />
        </mxCell>
        <mxCell id="ifYsJRK8j1tAmMsnNO0l-10" value="FIN" style="ellipse;whiteSpace=wrap;html=1;rounded=1;" vertex="1" parent="WIyWlLk6GJQsqaUBKTNV-1">
          <mxGeometry x="249.25" y="820" width="98.5" height="100" as="geometry" />
        </mxCell>
        <mxCell id="ifYsJRK8j1tAmMsnNO0l-13" value="" style="edgeStyle=orthogonalEdgeStyle;rounded=0;orthogonalLoop=1;jettySize=auto;html=1;" edge="1" parent="WIyWlLk6GJQsqaUBKTNV-1" source="ifYsJRK8j1tAmMsnNO0l-0" target="ifYsJRK8j1tAmMsnNO0l-4">
          <mxGeometry relative="1" as="geometry">
            <mxPoint x="299" y="290" as="sourcePoint" />
            <mxPoint x="300" y="400" as="targetPoint" />
          </mxGeometry>
        </mxCell>
        <mxCell id="ifYsJRK8j1tAmMsnNO0l-4" value="mostrar mensaje: &quot;Por favor ingrese una palabra&quot;" style="shape=parallelogram;perimeter=parallelogramPerimeter;whiteSpace=wrap;html=1;fixedSize=1;fillColor=#ffe6cc;strokeColor=#d79b00;" vertex="1" parent="WIyWlLk6GJQsqaUBKTNV-1">
          <mxGeometry x="174.75" y="340" width="249" height="100" as="geometry" />
        </mxCell>
      </root>
    </mxGraphModel>
  </diagram>
</mxfile>
